HIERARCHY
ROOT Hip
{
  OFFSET 0.000000 0.000000 0.000000
  CHANNELS 6 Xposition Yposition Zposition Zrotation Xrotation Yrotation
  JOINT RHip
  {
    OFFSET 0.064921 -0.023015 -0.001082
    CHANNELS 3 Zrotation Xrotation Yrotation
    JOINT RKnee
    {
      OFFSET -0.062390 0.288414 0.164011
      CHANNELS 3 Zrotation Xrotation Yrotation
      JOINT RFoot
      {
        OFFSET 0.089756 0.372667 0.037989
        CHANNELS 3 Zrotation Xrotation Yrotation
        End Site
        {
          OFFSET 0.000000 0.050000 0.000000
        }
      }
    }
  }
  JOINT LHip
  {
    OFFSET -0.064902 0.022956 0.000953
    CHANNELS 3 Zrotation Xrotation Yrotation
    JOINT LKnee
    {
      OFFSET -0.046411 0.238577 0.162305
      CHANNELS 3 Zrotation Xrotation Yrotation
      JOINT LFoot
      {
        OFFSET 0.209622 0.279344 -0.070860
        CHANNELS 3 Zrotation Xrotation Yrotation
        End Site
        {
          OFFSET 0.000000 0.050000 0.000000
        }
      }
    }
  }
  JOINT Spine
  {
    OFFSET -0.018268 -0.216847 -0.048592
    CHANNELS 3 Zrotation Xrotation Yrotation
    JOINT Thorax
    {
      OFFSET -0.077321 -0.124820 -0.017578
      CHANNELS 3 Zrotation Xrotation Yrotation
      JOINT Nose
      {
        OFFSET 0.108781 -0.098240 0.013594
        CHANNELS 3 Zrotation Xrotation Yrotation
        JOINT Head
        {
          OFFSET 0.029032 -0.081794 0.006190
          CHANNELS 3 Zrotation Xrotation Yrotation
          End Site
          {
            OFFSET 0.000000 0.050000 0.000000
          }
        }
      }
      JOINT LShoulder
      {
        OFFSET -0.029724 -0.013171 0.028411
        CHANNELS 3 Zrotation Xrotation Yrotation
        JOINT LElbow
        {
          OFFSET 0.061485 0.078702 0.051903
          CHANNELS 3 Zrotation Xrotation Yrotation
          JOINT LWrist
          {
            OFFSET 0.016730 -0.077027 0.034760
            CHANNELS 3 Zrotation Xrotation Yrotation
            End Site
            {
              OFFSET 0.000000 0.050000 0.000000
            }
          }
        }
      }
      JOINT RShoulder
      {
        OFFSET 0.074330 0.000007 -0.027179
        CHANNELS 3 Zrotation Xrotation Yrotation
        JOINT RElbow
        {
          OFFSET 0.140935 0.068181 -0.036074
          CHANNELS 3 Zrotation Xrotation Yrotation
          JOINT RWrist
          {
            OFFSET -0.115197 -0.176532 0.045917
            CHANNELS 3 Zrotation Xrotation Yrotation
            End Site
            {
              OFFSET 0.000000 0.050000 0.000000
            }
          }
        }
      }
    }
  }
}
MOTION
Frames: 18
Frame Time: 0.033333
0.000002 0.727163 0.000069 0.000000 0.000000 0.000000 -109.500043 -0.900200 -1.273728 10.662371 29.103135 -2.775189 -13.475364 5.660153 0.669226 70.513627 0.793559 -0.560978 9.148080 33.779668 -2.782995 -36.120960 -11.494372 -3.759439 6.187062 -163.340739 40.520967 145.240870 -7.447156 23.492440 -130.971390 5.414027 11.838684 -158.697630 4.442597 23.307112 65.206380 60.194976 -40.682377 -33.530084 27.794017 8.525396 -16.787564 143.124176 47.747636 -82.838485 -21.272091 -18.814250 -62.339960 -13.103466 -7.948319 136.818873 15.828705 -38.711255
0.000002 0.727164 0.000061 0.000000 0.000000 0.000000 -112.071391 3.121438 4.632568 -7.255755 22.057678 1.415987 -2.734363 2.406967 0.057454 67.622173 -3.253229 2.179082 1.382752 26.267021 -0.322644 -12.217151 -22.853651 -2.478375 -3.640168 -161.507638 -22.090604 116.062619 -42.741511 64.174122 -154.038823 -0.779646 -3.381316 107.787557 36.763259 -48.987313 17.392191 68.771340 -11.951017 -38.353557 34.951089 12.497101 -140.782053 -21.276440 -55.600143 -99.628678 -33.440436 -39.156345 -41.965560 -31.904109 -12.512154 40.827563 87.769407 -39.390300
0.000002 0.727163 0.000043 0.000000 0.000000 0.000000 -108.056743 20.505397 27.987994 -8.447564 22.384339 1.674378 -7.392802 -5.328093 -0.344463 58.604482 -18.431624 10.405736 -9.949664 29.935357 2.666213 -7.221048 -23.976050 -1.535245 -4.555225 -156.747774 -21.881860 29.280118 -123.747366 52.089026 -167.179546 -5.295041 -44.742503 153.822508 -1.759617 7.557852 25.380375 75.124300 -19.649504 -20.113462 16.435240 2.934269 18.940538 -147.853945 60.137119 -109.344985 -0.209376 -0.295411 -27.562958 -20.712495 -5.133001 -9.838168 121.303613 17.404935
0.000002 0.727161 0.000005 0.000000 0.000000 0.000000 16.363827 115.886294 -25.860778 -5.692799 9.625582 0.479710 -17.251491 7.480766 1.136376 -14.846233 -54.836267 -7.733138 -11.153846 17.115864 1.683684 -6.873656 -4.643020 -0.278993 -15.095603 -149.152360 -51.306508 23.100334 -129.805439 47.145686 102.783278 -65.290274 77.478197 -81.773350 76.050620 68.201395 -64.897961 -44.512997 -29.170401 -14.484701 1.034191 0.131429 142.848737 -11.763800 34.085944 -6.181122 108.912245 8.643563 1.906448 21.305579 -0.358632 -22.772784 -136.290272 -53.323509
0.000002 0.727163 0.000007 0.000000 0.000000 0.000000 -31.692590 92.290777 32.917019 9.808943 11.322435 -0.974716 -19.007822 -1.924542 -0.322222 27.355765 -60.958772 16.302624 -2.227202 14.777273 0.288850 -10.810948 -13.080684 -1.243105 -7.265797 -160.330154 -40.229852 68.950765 -93.419306 72.176594 163.988883 -0.831005 5.903624 -118.512190 -6.995938 -11.735397 14.848269 -87.049643 14.110420 8.692888 -24.327683 1.877162 137.040209 13.411381 -33.270776 -45.610906 70.923234 33.345483 -17.862998 39.927984 6.534871 110.714956 -19.546079 27.995680
0.000002 0.727167 0.000021 0.000000 0.000000 0.000000 -84.320675 33.440370 30.433290 5.712868 15.019130 -0.753697 -21.858924 -3.695304 -0.713813 65.915342 -30.416100 19.991747 -2.181719 18.933345 0.363833 -11.874014 -19.328554 -2.029100 -0.781404 -163.837612 -5.499241 25.913942 -137.462336 61.171909 -7.945855 168.090546 67.315485 -29.032337 -114.639303 -43.959164 57.829479 -43.193303 24.668285 9.179586 -23.839520 1.941718 52.869407 108.750517 -69.505212 -76.944956 29.821650 23.895242 -39.786473 15.728035 5.722618 151.077927 4.891474 -18.807933
0.000002 0.727175 0.000045 0.000000 0.000000 0.000000 -67.888910 48.564331 33.783256 10.174113 13.638827 -1.219847 -22.052137 3.947986 0.769568 58.115155 -43.525510 25.013105 0.480020 20.819540 -0.088185 -9.499494 -26.835466 -2.271114 0.817593 -168.525988 8.124538 -2.318156 -165.465123 -18.030200 0.478604 169.001357 -4.968019 -84.083888 -63.969400 -58.770235 49.946520 -46.673326 22.722600 3.036670 -12.066466 0.321022 39.104851 116.564234 -59.766227 -68.867197 43.433932 30.545612 -23.873707 -14.883699 -3.163497 119.028966 -8.607707 14.569973
0.000002 0.727179 0.000062 0.000000 0.000000 0.000000 -81.168121 34.454675 29.750454 8.834405 16.007395 -1.244594 -30.276149 0.779224 0.210809 67.201935 -31.965417 21.549462 1.100323 25.047102 -0.244417 -5.469993 -17.494068 -0.842247 -0.725538 -168.206977 -7.016383 171.923242 4.618390 -59.467801 -14.693873 152.730612 55.985538 -160.281574 1.258358 7.231170 58.572615 -38.402171 22.104174 14.635008 -21.248140 2.759721 8.232886 122.428802 -14.925342 -87.279561 35.413671 33.866974 -46.702653 -23.411395 -10.223216 117.562980 3.257004 -5.371544
0.000002 0.727179 0.000062 0.000000 0.000000 0.000000 -95.690838 21.811050 24.029300 2.717278 23.046511 -0.554085 -28.554373 -0.678639 -0.172697 69.766015 -20.615323 14.452329 1.647988 24.522766 -0.358180 -6.154528 -25.540761 -1.396203 -1.107838 -166.623562 -9.426312 99.212166 69.406097 -78.282455 -129.994009 37.687468 72.391591 -165.715589 -0.971717 -7.743211 57.372825 -32.338002 18.029495 3.697590 -43.104573 1.460847 41.372871 92.239707 -42.875366 -105.397401 22.713749 29.539191 -18.767083 -128.749087 -38.019541 81.516497 55.038034 -48.364309
0.000002 0.727173 0.000076 0.000000 0.000000 0.000000 -68.849919 51.877959 36.873323 9.184758 0.908210 -0.072953 -29.017951 2.937530 0.760343 53.914439 -43.133691 22.732541 0.227830 -0.870653 0.001731 -8.006891 -15.662289 -1.103004 -3.018825 -164.791691 -22.330734 149.925813 8.320528 -30.300443 49.432828 120.022836 -77.153295 -144.124754 5.332991 16.373813 40.503999 -57.681785 22.970041 10.721796 -34.369928 3.324644 118.667227 39.860166 -62.890432 -84.906016 36.791707 33.844525 -52.998920 -55.541533 -29.421010 30.404048 84.101547 -27.543940
0.000001 0.727169 0.000067 0.000000 0.000000 0.000000 -50.558896 64.989491 33.482703 8.045405 11.810967 -0.833545 -22.735464 11.888290 2.398395 45.608770 -57.268685 25.858129 5.458884 11.152825 -0.533379 -11.285858 -3.266942 -0.322885 -0.197129 -160.201583 -1.129554 154.478134 2.160366 -9.518166 170.938348 2.865627 -35.035879 -69.835556 90.307663 70.124626 30.191482 -88.488729 29.440011 -0.320013 -15.741973 -0.044240 1.838977 -146.190892 6.045958 -73.255142 47.231125 36.011368 -26.104287 42.342348 10.261158 87.942170 25.626179 -24.750277
0.000002 0.727166 0.000061 0.000000 0.000000 0.000000 -74.315638 40.741806 31.434859 8.621009 27.103779 -2.081681 -15.206733 10.840124 1.451284 64.011319 -37.785841 24.147401 11.777204 14.219674 -1.474094 -18.950240 -14.082997 -2.361970 0.110030 -152.685282 0.452824 147.030662 -12.256394 39.883687 -0.686558 169.850959 7.719955 0.081547 -167.743658 0.759510 111.134550 -21.370519 30.777099 4.658789 -12.344033 0.504079 -19.560437 -138.573235 -49.012090 -93.345382 27.637208 29.230597 -10.526099 74.491626 8.012519 131.066552 6.623291 -14.494316
0.000002 0.727166 0.000066 0.000000 0.000000 0.000000 -76.639968 -16.925170 -13.412816 5.898587 32.405272 -1.715379 -10.599448 8.777221 0.815778 93.953034 17.092915 -18.294864 -1.503607 16.788982 0.221898 3.240370 -19.306072 0.551296 0.042911 -155.737018 0.199624 2.484935 -159.957813 13.994701 2.372773 171.166982 -30.019498 140.069919 -8.308512 22.612856 50.813174 70.403372 -37.049891 -7.520884 48.663983 3.404755 -95.906305 -56.137373 -61.188182 -97.604821 -17.079892 -19.468155 27.617874 37.378147 -9.505593 39.407349 105.836122 -50.706501
0.000002 0.727166 0.000071 0.000000 0.000000 0.000000 -89.091470 22.174096 21.833689 3.226806 37.790471 -1.104741 -9.115011 7.400513 0.590724 75.778261 -21.669612 16.942115 7.319976 35.565282 -2.350610 9.067670 -18.016705 1.440465 -10.546845 -149.093253 -36.925812 6.686707 -144.971896 20.976020 161.624815 6.783014 -40.245523 141.051732 -18.560640 49.603353 72.791068 2.210504 -1.629551 19.585965 65.317546 -12.626420 -149.379508 -2.555775 -9.316744 -121.630950 15.980803 28.215014 -9.029517 18.154914 1.445567 68.804171 69.182498 -50.556659
0.000002 0.727168 0.000095 0.000000 0.000000 0.000000 -95.577267 22.639689 24.889118 -0.546382 42.769915 0.213961 -13.439933 8.345868 0.985081 68.852069 -21.388741 14.750096 7.066578 32.142825 -2.038213 6.279404 -18.130131 1.002849 -5.318111 -155.726168 -24.372507 5.276668 -150.657549 19.964471 1.308533 169.629427 -14.344612 43.473021 -110.600686 59.865301 75.556119 5.099587 -3.953560 -6.509694 53.351957 3.273249 -151.907746 13.974953 52.199692 -119.577420 12.267555 20.913737 -0.499257 3.806142 0.016589 24.759803 132.086760 -52.579073
0.000002 0.727169 0.000114 0.000000 0.000000 0.000000 -41.222947 86.209805 38.785376 -0.986572 32.929279 0.291580 -18.050022 10.669883 1.699508 32.431456 -54.603858 17.074772 7.762323 17.380309 -1.188212 5.107869 -24.475786 1.108597 -10.531413 -151.274746 -39.590427 20.308845 -144.410612 58.325780 145.089299 25.462987 -71.397052 -73.711785 -79.405355 -63.796609 46.920251 -38.304036 17.142460 8.192566 -23.206035 1.684892 6.009953 160.233802 -33.535826 -88.156899 52.230813 50.788033 -30.460493 1.071297 0.291680 72.115715 66.780782 -51.273579
0.000002 0.727171 0.000096 0.000000 0.000000 0.000000 -27.682683 105.708902 36.033870 -11.383695 24.396535 2.468627 -19.687730 6.463049 1.122613 22.456029 -52.735964 11.240162 7.254564 13.738227 -0.875083 -1.032783 -19.555718 -0.177986 -37.193531 -133.266324 -75.821692 3.857006 -163.346650 25.912005 175.971442 0.013183 -0.374834 -50.715642 -88.311310 -49.420619 59.813201 -19.704721 11.408937 31.522273 -22.000068 6.280412 77.380897 97.326617 -84.632134 -91.021719 57.160300 58.022911 30.395236 -22.865799 6.288933 76.447922 50.212496 -40.512504
0.000002 0.727168 0.000080 0.000000 0.000000 0.000000 48.716321 99.914309 -56.625867 -15.731945 12.739054 1.767125 -24.138524 2.165408 0.463061 -24.640317 -33.309081 -7.476265 8.645531 12.745070 -0.967369 -7.520020 -18.323991 -1.214558 -140.200913 -25.808606 -64.661404 2.046396 -162.066986 12.915901 26.587764 -141.197513 67.715248 -65.926011 -66.542604 -46.100814 -57.840053 -35.090792 -19.816851 50.925299 -5.911049 2.816629 131.137098 12.904534 -27.958797 29.170000 105.421639 -37.730223 24.501263 -37.946557 8.538602 7.205964 142.332953 -20.919219
